/* XPM */
static char * bitcoin16_xpm[] = {
"16 16 163 2",
"  	c None",
". 	c #CBAF66",
"+ 	c #CBA94E",
"@ 	c #C7A64D",
"# 	c #C6A348",
"$ 	c #CCAB51",
"% 	c #CDB066",
"& 	c #CFBC7E",
"* 	c #E5CA71",
"= 	c #DBBC63",
"- 	c #D5BE79",
"; 	c #D0BE8D",
"> 	c #CFBF8E",
", 	c #D6BF7E",
"' 	c #DCBE66",
") 	c #DEC269",
"! 	c #D0BC7D",
"~ 	c #D4BC7D",
"{ 	c #ECCF74",
"] 	c #E4D490",
"^ 	c #F2EFE0",
"/ 	c #EBECEC",
"( 	c #CECFCF",
"_ 	c #D1D2D3",
": 	c #EAEBEB",
"< 	c #F0EEE3",
"[ 	c #E3D493",
"} 	c #ECCF75",
"| 	c #D2B978",
"1 	c #D7B65D",
"2 	c #E3CC86",
"3 	c #F9F9F6",
"4 	c #DFDFDF",
"5 	c #E5E5E6",
"6 	c #E3E4E5",
"7 	c #E2E3E4",
"8 	c #F0F0F0",
"9 	c #F2F2F2",
"0 	c #F3F3F1",
"a 	c #DFCA89",
"b 	c #D6B55B",
"c 	c #A48B44",
"d 	c #C0A24B",
"e 	c #D6D2C4",
"f 	c #D2D3D3",
"g 	c #F5F5F5",
"h 	c #EBEBEB",
"i 	c #E4E5E5",
"j 	c #E6E7E7",
"k 	c #FCFDFD",
"l 	c #E8E8E8",
"m 	c #CBC9C0",
"n 	c #BFA14D",
"o 	c #A48A40",
"p 	c #A1832B",
"q 	c #A89250",
"r 	c #BEC1C2",
"s 	c #C0C2C2",
"t 	c #D0D2D2",
"u 	c #F9F9F9",
"v 	c #DDDEDF",
"w 	c #E2E2E2",
"x 	c #E3E3E3",
"y 	c #D5D7D7",
"z 	c #CDD0D1",
"A 	c #BCBFBF",
"B 	c #A28F54",
"C 	c #A2842D",
"D 	c #977A23",
"E 	c #938454",
"F 	c #999D9D",
"G 	c #ACB1B1",
"H 	c #A3A8A8",
"I 	c #C3C6C7",
"J 	c #E5E6E6",
"K 	c #E4E6E6",
"L 	c #C1C5C5",
"M 	c #B3B7B8",
"N 	c #A2A6A7",
"O 	c #A9ADAD",
"P 	c #877A53",
"Q 	c #987C26",
"R 	c #91751F",
"S 	c #897B51",
"T 	c #939798",
"U 	c #A1A6A7",
"V 	c #969A9B",
"W 	c #AAAEAF",
"X 	c #B7B8B9",
"Y 	c #AEB0AF",
"Z 	c #AFB3B4",
"` 	c #AAAEB0",
" .	c #979C9C",
"..	c #A3A8A9",
"+.	c #7D714F",
"@.	c #947721",
"#.	c #92751F",
"$.	c #8E7B42",
"%.	c #A5AAA9",
"&.	c #ABAEAF",
"*.	c #B3B5B6",
"=.	c #CCCECE",
"-.	c #B0B1B0",
";.	c #A8A8A8",
">.	c #CFD0D0",
",.	c #C6C8C8",
"'.	c #ABAEAE",
").	c #B1B3B4",
"!.	c #8E7B49",
"~.	c #9B7E27",
"{.	c #907834",
"].	c #9A7E2C",
"^.	c #ADACA3",
"/.	c #B9BCBC",
"(.	c #CDCECE",
"_.	c #CBCCCC",
":.	c #A0A0A0",
"<.	c #9A9A9A",
"[.	c #C6C6C6",
"}.	c #BDBEBE",
"|.	c #A6A5A0",
"1.	c #A58737",
"2.	c #9C8239",
"3.	c #AE8E34",
"4.	c #A98F53",
"5.	c #CCCDCB",
"6.	c #CDCFCE",
"7.	c #B6B6B5",
"8.	c #939393",
"9.	c #8C8C8B",
"0.	c #A3A2A1",
"a.	c #CCCDCC",
"b.	c #C2C3C2",
"c.	c #A78F57",
"d.	c #B8983E",
"e.	c #AC9559",
"f.	c #BF9D42",
"g.	c #B89E61",
"h.	c #BBB8B0",
"i.	c #ABABAA",
"j.	c #999998",
"k.	c #969695",
"l.	c #A2A2A0",
"m.	c #A7A49F",
"n.	c #AD945C",
"o.	c #C19D43",
"p.	c #AF9858",
"q.	c #B8A164",
"r.	c #C2A148",
"s.	c #A88633",
"t.	c #7F6936",
"u.	c #756748",
"v.	c #6D5E43",
"w.	c #786334",
"x.	c #987726",
"y.	c #C09E44",
"z.	c #BAA263",
"A.	c #A1863D",
"B.	c #9C7A22",
"C.	c #997822",
"D.	c #8F6D18",
"E.	c #9D7A22",
"F.	c #997D35",
"                                ",
"          . + @ # $ %           ",
"      & * = - ; > , ' ) !       ",
"    ~ { ] ^ / ( _ : < [ } |     ",
"    1 2 3 4 5 6 7 8 9 0 a b     ",
"  c d e f g h i j k l : m n o   ",
"  p q r s t u v w x y z A B C   ",
"  D E F G H I J K L M N O P Q   ",
"  R S T U V W X Y Z `  ...+.@.  ",
"  #.$.%.&.*.=.-.;.>.,.'.).!.~.  ",
"  {.].^./.(._.:.<.[.}.,.|.1.2.  ",
"    3.4.5.6.7.8.9.0.a.b.c.d.    ",
"    e.f.g.h.i.j.k.l.m.n.o.p.    ",
"      q.r.s.t.u.v.w.x.y.z.      ",
"          A.B.C.D.E.F.          ",
"                                "};
