/* XPM */
static char * bitcoin32_xpm[] = {
"32 32 655 2",
"  	c None",
". 	c #D0D1D2",
"+ 	c #B2B1AC",
"@ 	c #A59B80",
"# 	c #998A61",
"$ 	c #958354",
"% 	c #928154",
"& 	c #978960",
"* 	c #A3997D",
"= 	c #AFADA7",
"- 	c #CBCCCD",
"; 	c #CAC9C7",
"> 	c #B5A67D",
", 	c #C2A55A",
"' 	c #C7A446",
") 	c #C6A44B",
"! 	c #C7A54C",
"~ 	c #C2A149",
"{ 	c #C6A348",
"] 	c #C3A046",
"^ 	c #C3A44C",
"/ 	c #D1AD4C",
"( 	c #C5A759",
"_ 	c #B6A57A",
": 	c #C4C2BE",
"< 	c #DBDBDB",
"[ 	c #BDB18B",
"} 	c #CEAF5B",
"| 	c #E4C066",
"1 	c #D4B45E",
"2 	c #D2AF55",
"3 	c #D1B055",
"4 	c #CDAD56",
"5 	c #C8A64C",
"6 	c #C9A64A",
"7 	c #CCAD55",
"8 	c #D1B059",
"9 	c #D7B660",
"0 	c #E3C067",
"a 	c #DEBF64",
"b 	c #BCAF84",
"c 	c #D2D2D1",
"d 	c #C9C7C1",
"e 	c #C9B570",
"f 	c #DFC76F",
"g 	c #EDD076",
"h 	c #D8B75E",
"i 	c #D7B760",
"j 	c #DEBC60",
"k 	c #D3B45C",
"l 	c #CBAB52",
"m 	c #CAAA51",
"n 	c #CBAC53",
"o 	c #D3B45D",
"p 	c #DEBC63",
"q 	c #E0C067",
"r 	c #D8B861",
"s 	c #D8BA63",
"t 	c #E0C66C",
"u 	c #D2BC71",
"v 	c #C0BDB5",
"w 	c #C3C1B6",
"x 	c #D9C16D",
"y 	c #D2B55B",
"z 	c #F1D97E",
"A 	c #D9BC65",
"B 	c #E3C76D",
"C 	c #DBBD63",
"D 	c #D1BD81",
"E 	c #D5CBA9",
"F 	c #DAD5C6",
"G 	c #D2D2CC",
"H 	c #D1D1CC",
"I 	c #D8D5C8",
"J 	c #D6CDAF",
"K 	c #D2C089",
"L 	c #D9BC64",
"M 	c #E0C56D",
"N 	c #E5CB72",
"O 	c #DCC067",
"P 	c #D2B762",
"Q 	c #DCC36D",
"R 	c #BCB8AA",
"S 	c #C7C5BF",
"T 	c #D9BB68",
"U 	c #EED276",
"V 	c #EFD479",
"W 	c #DCC571",
"X 	c #E1CC75",
"Y 	c #DDD49F",
"Z 	c #F1F0EA",
"` 	c #F6F6F6",
" .	c #EDEEEE",
"..	c #E4E5E6",
"+.	c #DCDEDE",
"@.	c #DCDEDF",
"#.	c #ECEDED",
"$.	c #F2F3F3",
"%.	c #EFEFEC",
"&.	c #E0D7AD",
"*.	c #DDCA76",
"=.	c #DFC66E",
"-.	c #F0D67C",
";.	c #EFD176",
">.	c #DCBC66",
",.	c #BDB9B0",
"'.	c #D5D6D6",
").	c #C7AB66",
"!.	c #EAC76B",
"~.	c #E4C46B",
"{.	c #F0D478",
"].	c #E8D685",
"^.	c #EDECD6",
"/.	c #FEFEFE",
"(.	c #FDFDFD",
"_.	c #F7F7F8",
":.	c #D4D5D5",
"<.	c #BDBEBE",
"[.	c #BBBCBC",
"}.	c #BEBFC0",
"|.	c #C7C8C8",
"1.	c #D7D8D8",
"2.	c #F6F7F7",
"3.	c #F7F7F7",
"4.	c #EAE9DD",
"5.	c #E7D78E",
"6.	c #EED377",
"7.	c #E6C56B",
"8.	c #E7C56A",
"9.	c #CAAC61",
"0.	c #C9CAC9",
"a.	c #AFA27D",
"b.	c #D8B457",
"c.	c #E7C469",
"d.	c #EDCC71",
"e.	c #E8D07F",
"f.	c #F2F1E3",
"g.	c #FFFFFF",
"h.	c #D7D7D7",
"i.	c #C6C6C6",
"j.	c #DDDDDE",
"k.	c #E7E8E8",
"l.	c #DEE0E0",
"m.	c #DDDFE0",
"n.	c #E3E3E3",
"o.	c #E7E7E7",
"p.	c #FCFCFC",
"q.	c #F9F9F9",
"r.	c #E8E8E1",
"s.	c #E7D289",
"t.	c #EBCA6F",
"u.	c #E6C367",
"v.	c #D6B358",
"w.	c #AD9D71",
"x.	c #BABBB9",
"y.	c #BB9B45",
"z.	c #CCAE59",
"A.	c #D5B45C",
"B.	c #D7B65D",
"C.	c #E4E1CB",
"D.	c #FBFBFB",
"E.	c #C2C2C2",
"F.	c #E9E9E9",
"G.	c #F7F8F8",
"H.	c #EAEBEB",
"I.	c #DFE0E1",
"J.	c #DEDFE0",
"K.	c #E9EAEB",
"L.	c #FAFAFA",
"M.	c #EDEDED",
"N.	c #F3F4F4",
"O.	c #D9D8CD",
"P.	c #D4B661",
"Q.	c #D5B45B",
"R.	c #CAAC56",
"S.	c #BC9B42",
"T.	c #AFAFAA",
"U.	c #8F835F",
"V.	c #BA993F",
"W.	c #C8AA52",
"X.	c #CBAD56",
"Y.	c #C5B380",
"Z.	c #EAECEC",
"`.	c #F1F2F2",
" +	c #BEBFBF",
".+	c #F5F5F5",
"++	c #EBECED",
"@+	c #DDDEDF",
"#+	c #F9FAFA",
"$+	c #F3F3F3",
"%+	c #EFF0F0",
"&+	c #C4B895",
"*+	c #C7A74E",
"=+	c #C4A650",
"-+	c #BA9B43",
";+	c #8B7D52",
">+	c #ADB1B2",
",+	c #937B35",
"'+	c #B7973E",
")+	c #BDA14B",
"!+	c #B4933C",
"~+	c #CECDC6",
"{+	c #C3C4C4",
"]+	c #D9DADA",
"^+	c #F8F9F9",
"/+	c #E8E8E8",
"(+	c #DCDCDC",
"_+	c #DADADA",
":+	c #E8E9E9",
"<+	c #E0E1E2",
"[+	c #F2F2F3",
"}+	c #F4F4F4",
"|+	c #C0C1C1",
"1+	c #DFE0E0",
"2+	c #B7B9B8",
"3+	c #B19446",
"4+	c #C1A651",
"5+	c #B5973F",
"6+	c #977C30",
"7+	c #9EA3A4",
"8+	c #898D8B",
"9+	c #99781E",
"0+	c #B0933D",
"a+	c #B2943D",
"b+	c #AB985D",
"c+	c #C9CCCC",
"d+	c #CCCFD0",
"e+	c #A7A9A9",
"f+	c #DFE1E1",
"g+	c #E8EAEA",
"h+	c #CDCECE",
"i+	c #D8D9D9",
"j+	c #F0F0F0",
"k+	c #BCBDBD",
"l+	c #E8E9EA",
"m+	c #DCDFDF",
"n+	c #D2D5D5",
"o+	c #CCCFCF",
"p+	c #B1B4B4",
"q+	c #AC9F75",
"r+	c #AE9038",
"s+	c #B0943F",
"t+	c #7C7E78",
"u+	c #75715F",
"v+	c #94751C",
"w+	c #AA8E39",
"x+	c #9E7F27",
"y+	c #A79F7F",
"z+	c #BBBEBF",
"A+	c #AAAEAD",
"B+	c #AEB1B2",
"C+	c #D2D4D5",
"D+	c #BBBDBD",
"E+	c #DBDCDC",
"F+	c #C5C6C6",
"G+	c #D3D3D4",
"H+	c #E5E5E5",
"I+	c #E3E4E4",
"J+	c #BDBDBD",
"K+	c #E0E2E3",
"L+	c #D2D5D6",
"M+	c #C8CBCC",
"N+	c #C0C4C5",
"O+	c #BEC1C1",
"P+	c #B7BBBB",
"Q+	c #949281",
"R+	c #9D7E26",
"S+	c #A98E38",
"T+	c #977921",
"U+	c #676048",
"V+	c #655C40",
"W+	c #8F7017",
"X+	c #A18631",
"Y+	c #91731D",
"Z+	c #9F9E8E",
"`+	c #AAAFB0",
" @	c #909393",
".@	c #B4B8B7",
"+@	c #B4B8B9",
"@@	c #B9BDBE",
"#@	c #A4A7A7",
"$@	c #CFD2D2",
"%@	c #E3E5E5",
"&@	c #F2F2F2",
"*@	c #F0F1F1",
"=@	c #E1E2E2",
"-@	c #D0D3D3",
";@	c #C5C8C8",
">@	c #BDC1C2",
",@	c #A3A7A7",
"'@	c #B1B5B4",
")@	c #ABAFB0",
"!@	c #888B8A",
"~@	c #91741F",
"{@	c #997D27",
"]@	c #8F731C",
"^@	c #615633",
"/@	c #5E5333",
"(@	c #8F721A",
"_@	c #9D822D",
":@	c #846513",
"<@	c #999B96",
"[@	c #A0A5A6",
"}@	c #8A8E8D",
"|@	c #A7ACAC",
"1@	c #A3A8A9",
"2@	c #A4A9AA",
"3@	c #8F9393",
"4@	c #B2B6B7",
"5@	c #C2C6C7",
"6@	c #E6E7E8",
"7@	c #E6E8E8",
"8@	c #C4C7C8",
"9@	c #AEB3B4",
"0@	c #A8ADAE",
"a@	c #A7ACAD",
"b@	c #A5AAAB",
"c@	c #A3A8AA",
"d@	c #8D9191",
"e@	c #A7ACAB",
"f@	c #A2A7A8",
"g@	c #878B8C",
"h@	c #7D6218",
"i@	c #A78C37",
"j@	c #93761F",
"k@	c #61532C",
"l@	c #5C5232",
"m@	c #8A6D16",
"n@	c #977E2C",
"o@	c #785A0D",
"p@	c #9B9E99",
"q@	c #9CA1A3",
"r@	c #898C8D",
"s@	c #A3A8A8",
"t@	c #9DA2A4",
"u@	c #898D8D",
"v@	c #A0A4A6",
"w@	c #A9ADAE",
"x@	c #BEC0C0",
"y@	c #B8BABA",
"z@	c #B3B7B7",
"A@	c #A6ABAB",
"B@	c #A1A6A7",
"C@	c #A2A7A9",
"D@	c #A0A5A7",
"E@	c #9EA3A5",
"F@	c #A4A9A9",
"G@	c #9FA4A5",
"H@	c #878B8B",
"I@	c #735817",
"J@	c #9D812C",
"K@	c #8F731D",
"L@	c #5F522C",
"M@	c #5D553B",
"N@	c #886B13",
"O@	c #9E822A",
"P@	c #70540B",
"Q@	c #A2A193",
"R@	c #8B8F8F",
"S@	c #A5AAAA",
"T@	c #A2A7A7",
"U@	c #909494",
"V@	c #BABEBE",
"W@	c #CBCCCC",
"X@	c #ABABAA",
"Y@	c #989897",
"Z@	c #B7B8B8",
"`@	c #BABDBE",
" #	c #B7BABB",
".#	c #B0B4B5",
"+#	c #ABB0B1",
"@#	c #8D9090",
"##	c #A9AEAD",
"$#	c #888B8B",
"%#	c #745911",
"&#	c #9B802B",
"*#	c #896B14",
"=#	c #5C5230",
"-#	c #686656",
";#	c #866810",
">#	c #9F832E",
",#	c #856815",
"'#	c #96927E",
")#	c #979B9A",
"!#	c #B0B4B4",
"~#	c #9EA0A0",
"{#	c #C2C4C5",
"]#	c #CDCECF",
"^#	c #CDCECD",
"/#	c #9E9E9E",
"(#	c #969696",
"_#	c #C7C7C7",
":#	c #D0D1D1",
"<#	c #CACCCC",
"[#	c #C6C8C9",
"}#	c #BFC2C2",
"|#	c #AAADAD",
"1#	c #A6AAAA",
"2#	c #B7BABA",
"3#	c #B0B3B4",
"4#	c #8A887E",
"5#	c #806114",
"6#	c #A28732",
"7#	c #91731B",
"8#	c #5C5740",
"9#	c #838785",
"0#	c #856610",
"a#	c #A0842E",
"b#	c #997C25",
"c#	c #887952",
"d#	c #ADB1B1",
"e#	c #A0A2A2",
"f#	c #BDC0C1",
"g#	c #C1C3C3",
"h#	c #D1D2D2",
"i#	c #D4D6D5",
"j#	c #BBBBBB",
"k#	c #9D9D9C",
"l#	c #979796",
"m#	c #AEAEAE",
"n#	c #CDCFCF",
"o#	c #C8CACA",
"p#	c #9D9F9F",
"q#	c #C1C4C4",
"r#	c #BFC1C1",
"s#	c #9FA2A2",
"t#	c #8E8169",
"u#	c #A3832B",
"v#	c #917118",
"w#	c #7D7E77",
"x#	c #9EA1A2",
"y#	c #887130",
"z#	c #997C24",
"A#	c #A38835",
"B#	c #82661F",
"C#	c #AEB0AD",
"D#	c #B5B9B9",
"E#	c #ACAFAE",
"F#	c #BFC1C2",
"G#	c #C9CBCB",
"H#	c #CED0D0",
"I#	c #D3D4D4",
"J#	c #CCCDCD",
"K#	c #AFAFAF",
"L#	c #989898",
"M#	c #949494",
"N#	c #A6A6A6",
"O#	c #C5C5C5",
"P#	c #D2D3D3",
"Q#	c #B6B8B7",
"R#	c #B4B5B6",
"S#	c #CACCCB",
"T#	c #C3C5C6",
"U#	c #949796",
"V#	c #8E7135",
"W#	c #B1933D",
"X#	c #AA8B35",
"Y#	c #987D32",
"Z#	c #94999A",
"`#	c #857A58",
" $	c #9C7D25",
".$	c #AD9038",
"+$	c #9A7A25",
"@$	c #968667",
"#$	c #BFC2C1",
"$$	c #C3C6C6",
"%$	c #B9BBBB",
"&$	c #CECFCF",
"*$	c #D2D2D2",
"=$	c #BEBEBE",
"-$	c #929292",
";$	c #9D9D9D",
">$	c #B3B3B3",
",$	c #CECECF",
"'$	c #B1B2B2",
")$	c #D1D3D2",
"!$	c #CCCDCE",
"~$	c #B2B3B3",
"{$	c #908571",
"]$	c #A4822D",
"^$	c #B39640",
"/$	c #A98830",
"($	c #887A50",
"_$	c #9B9D9B",
":$	c #9A7D2A",
"<$	c #B0933B",
"[$	c #B09136",
"}$	c #967426",
"|$	c #BDB9AF",
"1$	c #CCCECE",
"2$	c #C8CAC9",
"3$	c #C2C2C1",
"4$	c #B0B0AF",
"5$	c #A1A1A1",
"6$	c #919191",
"7$	c #9A9A9A",
"8$	c #A4A3A2",
"9$	c #9E9E9D",
"0$	c #BABBBA",
"a$	c #D6D7D6",
"b$	c #CACBCA",
"c$	c #9D9C97",
"d$	c #9E7C35",
"e$	c #BB9A3E",
"f$	c #BB9E48",
"g$	c #AA8A34",
"h$	c #91928D",
"i$	c #948864",
"j$	c #A7862C",
"k$	c #B19035",
"l$	c #AF8E36",
"m$	c #A58442",
"n$	c #CCCCCB",
"o$	c #C0C0BF",
"p$	c #939392",
"q$	c #878786",
"r$	c #828281",
"s$	c #858584",
"t$	c #929291",
"u$	c #B8B8B7",
"v$	c #CFCFCE",
"w$	c #D4D5D4",
"x$	c #CECECE",
"y$	c #A1A19E",
"z$	c #AB8E56",
"A$	c #B9963B",
"B$	c #BA983D",
"C$	c #B29037",
"D$	c #96885D",
"E$	c #B0B2B3",
"F$	c #A58D4A",
"G$	c #B5943B",
"H$	c #C2A145",
"I$	c #BB983D",
"J$	c #AE8D4A",
"K$	c #C7C3B9",
"L$	c #CACACA",
"M$	c #C9CACA",
"N$	c #B8B9B8",
"O$	c #AAAAA9",
"P$	c #A1A19F",
"Q$	c #9A9A98",
"R$	c #989896",
"S$	c #9D9D9B",
"T$	c #A7A6A4",
"U$	c #C1C1C1",
"V$	c #BABAB9",
"W$	c #A19E99",
"X$	c #AC8F55",
"Y$	c #BE993E",
"Z$	c #C6A347",
"`$	c #BE9C43",
" %	c #AD924A",
".%	c #A6A7A7",
"+%	c #A6A49D",
"@%	c #B19345",
"#%	c #BD9A40",
"$%	c #C3A247",
"%%	c #C1A047",
"&%	c #AE8A3B",
"*%	c #AE9D80",
"=%	c #AFAFAD",
"-%	c #A5A5A4",
";%	c #A5A5A5",
">%	c #999999",
",%	c #909090",
"'%	c #9F9F9E",
")%	c #949492",
"!%	c #90908F",
"~%	c #938673",
"{%	c #A7833A",
"]%	c #C1A149",
"^%	c #BF9D46",
"/%	c #C19E44",
"(%	c #B79846",
"_%	c #9D9B91",
":%	c #A7A498",
"<%	c #B89A4B",
"[%	c #C5A54C",
"}%	c #C6A44A",
"|%	c #BE9E47",
"1%	c #AE8930",
"2%	c #876828",
"3%	c #7D6E53",
"4%	c #827D6E",
"5%	c #858582",
"6%	c #848583",
"7%	c #7D7D7B",
"8%	c #736F64",
"9%	c #6F634E",
"0%	c #785E25",
"a%	c #A27F28",
"b%	c #BD9A41",
"c%	c #C9A649",
"d%	c #BB9C4B",
"e%	c #A19D8E",
"f%	c #AEABA4",
"g%	c #B79D59",
"h%	c #C3A149",
"i%	c #C4A248",
"j%	c #B59238",
"k%	c #8E6C14",
"l%	c #714E04",
"m%	c #654607",
"n%	c #674C18",
"o%	c #5A3E0C",
"p%	c #5D3E05",
"q%	c #674501",
"r%	c #987520",
"s%	c #A07C21",
"t%	c #A8852B",
"u%	c #BE9D44",
"v%	c #BF9E45",
"w%	c #BDA45E",
"x%	c #A7A49A",
"y%	c #BDBEBD",
"z%	c #AC9E77",
"A%	c #B69542",
"B%	c #B4933A",
"C%	c #AF8C30",
"D%	c #B5943A",
"E%	c #926F14",
"F%	c #98771E",
"G%	c #A1822F",
"H%	c #8A6915",
"I%	c #8F6D17",
"J%	c #99771C",
"K%	c #A17F24",
"L%	c #AB8A32",
"M%	c #AB8B36",
"N%	c #A6966C",
"O%	c #B5B5B4",
"P%	c #A6A5A1",
"Q%	c #91825B",
"R%	c #947831",
"S%	c #93711A",
"T%	c #997822",
"U%	c #95731B",
"V%	c #93711D",
"W%	c #916F19",
"X%	c #9B7820",
"Y%	c #92711C",
"Z%	c #8F722C",
"`%	c #8C7C54",
" &	c #A09E98",
".&	c #9F9FA0",
"+&	c #8C8983",
"@&	c #796E59",
"#&	c #726243",
"$&	c #6F5D3B",
"%&	c #6F5C3B",
"&&	c #706042",
"*&	c #766B57",
"=&	c #89857F",
"-&	c #999A9B",
"                                                                ",
"                      . + @ # $ % & * = -                       ",
"                  ; > , ' ) ! ~ { ] ^ / ( _ :                   ",
"              < [ } | 1 2 3 4 5 6 6 7 8 9 0 a b c               ",
"            d e f g h i j k l m m n o p q r s t u v             ",
"          w x y z A B C D E F G H I J K L M N O P Q R           ",
"        S T U V W X Y Z `  ...+.@...#.$.%.&.*.=.-.;.>.,.        ",
"      '.).!.~.{.].^./.(._.:.<.[.}.|.1.2.(.3.4.5.6.7.8.9.0.      ",
"      a.b.c.d.e.f.g./.h.i.j.k.l.m.k. .n.o.p.q.r.s.t.u.v.w.      ",
"    x.y.z.A.B.C.D.p.E.F.(.G.H.I.J.K.` L.q.M.q.N.O.P.Q.R.S.T.    ",
"    U.V.W.X.Y.Z.`. +.+g./.q.++@++.++#+/.L.$+%+%+1.&+*+=+-+;+    ",
"  >+,+'+)+!+~+@.{+]+^+/+(+_+:+<+<+[+(.g.}+|+ .1+@.2+3+4+5+6+7+  ",
"  8+9+0+a+b+c+d+e+f+g+h+(./.^+I.i+^+g.j+k+l+m+n+o+p+q+r+s+9+t+  ",
"  u+v+w+x+y+z+A+B+o+C+D+%+p.E+F+G+H+I+J+K+L+M+N+O+P+Q+R+S+T+U+  ",
"  V+W+X+Y+Z+`+ @.@+@@@#@$@%@L.&@*@^+=@-@;@>@P+,@'@)@!@~@{@]@^@  ",
"  /@(@_@:@<@[@}@|@1@2@3@)@4@5@6@7@8@9@0@a@b@c@d@e@f@g@h@i@j@k@  ",
"  l@m@n@o@p@q@r@s@t@t@u@v@f@w@x@y@z@A@B@C@D@E@u@F@G@H@I@J@K@L@  ",
"  M@N@O@P@Q@t@R@S@T@1@U@>+V@W@X@Y@Z@x@`@ #.#+#@###1@$#%#&#*#=#  ",
"  -#;#>#,#'#A@)#1@!#.#~#{#]#^#/#(#_#:#<#[#}#|#1#2#3#4#5#6#7#8#  ",
"  9#0#a#b#c#d#>+e#`@f#g#h#i#j#k#l#m#h#:.n#o#p#q#r#s#t#u#w+v#w#  ",
"  x#y#z#A#B#C#D#E#F#G#H#I#J#K#L#M#N#O#I#P#Q#R#S#T#U#V#W#X#Y#Z#  ",
"    `# $.$+$@$#$$$%$&$:#*$=$N#(#-$;$>$,$=$'$)$!$~${$]$^$/$($    ",
"    _$:$<$[$}$|$G#1$2$h#3$4$5$M#6$7$8$9$0$a$P#b$c$d$e$f$g$h$    ",
"      i$j$k$l$m$~+:#I#n$o$N#p$q$r$s$t$u$v$w$x$y$z$A$B$C$D$      ",
"      E$F$G$H$I$J$K$L$M$N$O$P$Q$R$S$T$4$U$V$W$X$Y$Z$`$ %.%      ",
"        +%@%#%$%%%&%*%=%-%;%>%-$,%M#'%)%!%~%{%]%^%/%(%_%        ",
"          :%<%[%}%|%1%2%3%4%5%6%r$7%8%9%0%a%b%c%6 d%e%          ",
"            f%g%h%i%'+j%k%l%m%n%o%p%q%r%s%t%u%v%w%x%            ",
"              y%z%A%B%C%D%E%F%G%H%I%J%C%K%L%M%N%O%              ",
"                  P%Q%R%S%T%U%T%V%W%X%Y%Z%`% &                  ",
"                      .&+&@&#&$&%&&&*&=&-&                      ",
"                                                                "};
