/* XPM */
static char *d2a9d855917345bf800ae317f92fc742[] = {
/* columns rows colors chars-per-pixel */
"64 64 256 2 ",
"   c #4C330B",
".  c #563905",
"X  c #4C391A",
"o  c #4A2E02",
"O  c #5C4412",
"+  c #63470A",
"@  c #6B4804",
"#  c #7D5B0B",
"$  c #785607",
"%  c #664C19",
"&  c #7A5A13",
"*  c #7A5C1B",
"=  c #765315",
"-  c #714D0C",
";  c #7F6109",
":  c #7D611F",
">  c #534325",
",  c #6B5425",
"<  c #7C5D26",
"1  c #644C22",
"2  c #786128",
"3  c #766438",
"4  c #394346",
"5  c #414B4E",
"6  c #444D51",
"7  c #4A5153",
"8  c #4C5457",
"9  c #6B6247",
"0  c #766948",
"q  c #736C58",
"w  c #5D6466",
"e  c #67696A",
"r  c #716F6E",
"t  c #73736E",
"y  c #6E7272",
"u  c #737574",
"i  c #767A7B",
"p  c #7B7C7B",
"a  c #777977",
"s  c #825F07",
"d  c #815918",
"f  c #83640C",
"g  c #8A670D",
"h  c #856513",
"j  c #866913",
"k  c #8B6C13",
"l  c #8A6718",
"z  c #916E14",
"x  c #916A1B",
"c  c #8F7119",
"v  c #93741B",
"b  c #99761D",
"n  c #97761B",
"m  c #825E28",
"M  c #866526",
"N  c #956B26",
"B  c #8D7125",
"V  c #967A23",
"C  c #9B7C23",
"Z  c #9A7D29",
"A  c #967426",
"S  c #886C3A",
"D  c #9B7A3A",
"F  c #8C763B",
"G  c #A17D25",
"H  c #836D49",
"J  c #85734C",
"K  c #857A62",
"L  c #827F7B",
"P  c #9E812B",
"I  c #9E8027",
"U  c #9C8232",
"Y  c #A48225",
"T  c #A3842B",
"R  c #AC892E",
"E  c #AB8629",
"W  c #B48F2C",
"Q  c #A38533",
"!  c #AC8C33",
"~  c #A58B3B",
"^  c #AB8D3A",
"/  c #A68B34",
"(  c #B18E32",
")  c #AE913B",
"_  c #B49136",
"`  c #B4933B",
"'  c #B9963C",
"]  c #BC993E",
"[  c #B89638",
"{  c #C19C3E",
"}  c #CAA33D",
"|  c #9C8549",
" . c #968559",
".. c #A88E47",
"X. c #AC9243",
"o. c #AF944A",
"O. c #B39643",
"+. c #B59944",
"@. c #BD9C43",
"#. c #B39A4B",
"$. c #BB9E4B",
"%. c #B69643",
"&. c #A68D57",
"*. c #AC9656",
"=. c #B89D58",
"-. c #BFA14C",
";. c #BDA252",
":. c #8A826D",
">. c #968968",
",. c #81817E",
"<. c #8B8877",
"1. c #958A74",
"2. c #9A927B",
"3. c #A6976B",
"4. c #A79A76",
"5. c #A38D6A",
"6. c #B8A268",
"7. c #B5A476",
"8. c #C19E43",
"9. c #C4A246",
"0. c #CAA445",
"q. c #C4A34A",
"w. c #C9A64A",
"e. c #CBA94D",
"r. c #C3A84E",
"t. c #D3AD4D",
"y. c #DBB34D",
"u. c #C2A552",
"i. c #C5AA53",
"p. c #CCAC53",
"a. c #C6AB5A",
"s. c #CBAD5A",
"d. c #C8A750",
"f. c #D1AE52",
"g. c #CDB35C",
"h. c #CFB251",
"j. c #D2B156",
"k. c #D4B45B",
"l. c #D9B65B",
"z. c #DBB95D",
"x. c #D8B757",
"c. c #E3BE5A",
"v. c #C3AB6A",
"b. c #CCB666",
"n. c #D3B762",
"m. c #D5BA63",
"M. c #DCBC63",
"N. c #D5BC6A",
"B. c #C7B579",
"V. c #C2AF7A",
"C. c #E0BE62",
"Z. c #E2C25D",
"A. c #DDC268",
"S. c #DAC976",
"D. c #E4C364",
"F. c #E5C46A",
"G. c #E9C66A",
"H. c #EBCA6E",
"J. c #E6CB6A",
"K. c #E4CB73",
"L. c #EBCD73",
"P. c #E4CC76",
"I. c #F0CD73",
"U. c #EDD37A",
"Y. c #EAD278",
"T. c #F2D177",
"R. c #F2D57A",
"E. c #F3D97D",
"W. c #7C7F81",
"Q. c #7E8182",
"!. c #828483",
"~. c #8B8A83",
"^. c #868989",
"/. c #8B8C8C",
"(. c #868887",
"). c #989485",
"_. c #8D8F90",
"`. c #8E9293",
"'. c #939494",
"]. c #95999A",
"[. c #9B9C9B",
"{. c #959896",
"}. c #A49E8C",
"|. c #A29E93",
" X c #9FA09F",
".X c #A8A28B",
"XX c #BBAD84",
"oX c #B4AA89",
"OX c #A2A29D",
"+X c #A8A597",
"@X c #B6AF99",
"#X c #9C9FA0",
"$X c #9EA3A4",
"%X c #A3A4A4",
"&X c #A8A8A6",
"*X c #A2A7A8",
"=X c #A5AAAB",
"-X c #AAACAC",
";X c #ADB0AF",
":X c #B0B1AF",
">X c #B9B4A5",
",X c #AAAFB0",
"<X c #AEB2B3",
"1X c #B2B4B4",
"2X c #B3B7B8",
"3X c #B5BABA",
"4X c #BBBCBC",
"5X c #B4B8B7",
"6X c #B0AFAF",
"7X c #C6B890",
"8X c #C1BFB8",
"9X c #CCBFA0",
"0X c #BFC0BF",
"qX c #D9CE89",
"wX c #D1C69E",
"eX c #F3DC83",
"rX c #F1DE88",
"tX c #EBDB8B",
"yX c #C7C4B8",
"uX c #D7CEAD",
"iX c #E4DFA9",
"pX c #E6E3B2",
"aX c #F5E28C",
"sX c #BCBFC0",
"dX c #BEC1C2",
"fX c #C2C4C4",
"gX c #C4C7C8",
"hX c #C6C9CA",
"jX c #CBCCCC",
"kX c #C6C8C7",
"lX c #CFD0CF",
"zX c #D6D5CA",
"xX c #CDCFD0",
"cX c #CED1D1",
"vX c #D3D4D4",
"bX c #D7D9D9",
"nX c #DBDCDC",
"mX c #D7D8D6",
"MX c #D0CDC2",
"NX c #E0DEC0",
"BX c #E2E1C4",
"VX c #E5E5D6",
"CX c #DEDFE0",
"ZX c #DFE0E1",
"AX c #E2E4E4",
"SX c #E6E7E8",
"DX c #E7E8E9",
"FX c #EBECEC",
"GX c #F0F1EE",
"HX c #EEEFF0",
"JX c #EFF0F0",
"KX c #F3F4F4",
"LX c #F7F8F8",
"PX c #FDFDFD",
"IX c #F9F8F4",
"UX c None",
/* pixels */
"UXUXUXUXUXUXUXUXUXUXUXUXUXUXUXUXUXUXUXUXUXUXUXUXUXUXUXUXKXKXJXJXJXJXKXKXLXUXUXUXUXUXUXUXUXUXUXUXUXUXUXUXUXUXUXUXUXUXUXUXUXUXUXUX",
"UXUXUXUXUXUXUXUXUXUXUXUXUXUXUXUXUXUXUXUXUXUXUXLXLXKXHXKXJXHXFXAXAXHXJXJXJXJXKXLXLXUXUXUXUXUXUXUXUXUXUXUXUXUXUXUXUXUXUXUXUXUXUXUX",
"UXUXUXUXUXUXUXUXUXUXUXUXUXUXUXUXUXUXUXUXPXLXLXLXFXlX1X%X/.Q.p a i p W.(.].,XhXDXLXPXLXPXUXUXUXUXUXUXUXUXUXUXUXUXUXUXUXUXUXUXUXUX",
"UXUXUXUXUXUXUXUXUXUXUXUXUXUXUXUXUXUXPXPXPXHX0X{.!.1.>...X._ ( W R ! _ ..*.&.1.,._.1XAXPXPXPXUXUXUXUXUXUXUXUXUXUXUXUXUXUXUXUXUXUX",
"UXUXUXUXUXUXUXUXUXUXUXUXUXUXUXUXPXPXPXZX6X`.5.=.{ { 0.0.w.w.w.w.w.8.w.' i.` 0.} ;.3.{.&XvXLXPXPXUXUXUXUXUXUXUXUXUXUXUXUXUXUXUXUX",
"UXUXUXUXUXUXUXUXUXUXUXUXUXUXPXPXPXAX6X|.v.y.y.x.z.9.u.p.j.$.#.d.d.e.j.{ m.8.l.l.l.x.y.v..X%XlXPXPXPXUXUXUXUXUXUXUXUXUXUXUXUXUXUX",
"UXUXUXUXUXUXUXUXUXUXUXUXUXPXPXKX3X+XB.y.C.G.M.C.F.8.L.] z.n.w.e.9.e.f.9.n.a.C.s.n.C.G.C.c.b.+X-XSXPXPXUXUXUXUXUXUXUXUXUXUXUXUXUX",
"UXUXUXUXUXUXUXUXUXUXUXUXPXPXbX&XXXc.D.%.L.M.N.q.M.w.M.0.z.O.d.q.w.e.d.0.M.{ M.9.F.w.I.n.J.G.Z.V.OXkXPXPXUXUXUXUXUXUXUXUXUXUXUXUX",
"UXUXUXUXUXUXUXUXUXUXUXPXPXfX+XN.A.a.U.A.g.D.p.D.j.M.N.M.k.F.m.k.l.n.M.N.n.K.C.x.f.C.u.G.s.U.L.G.A.+X1XKXPXIXUXUXUXUXUXUXUXUXUXUX",
"UXUXUXUXUXUXUXUXUXUXPXLX5X@XA.g.U.eXE.E.9.T.m.A.G.C.z.d.@.8.8.8.8.8.8.8.w.x.M.K.A.eXe.U.8.Y.b.Y.J.D.oX&XFXPXIXUXUXUXUXUXUXUXUXUX",
"UXUXUXUXUXUXUXUXUXPXLX1XXXZ.m.k.eXE.$.P.J.A.L.F.w.e.s.B.wXyXyXyX8XyXyXwX7Xv.e.w.M.L.L.N.U.A.k.P.K.m.D.B.&XSXPXIXUXUXUXUXUXUXUXUX",
"UXUXUXUXUXUXUXUXPXLX:XXXD.Y.H.@.E.eXL.A.U.F.f.b.uXzXAXFXDXDXAXZXAXAXAXDXFXAXnXNXB.f.C.U.P.Y.e.eX-.A.Y.Z.V.&XSXPXUXUXUXUXUXUXUXUX",
"UXUXUXUXUXUXUXPXPX1XXXZ.Y.R.E.D.+.A.S.Y.n.S.BXHXIXKXKXHXDXAXZXCXZXZXAXDXFXHXJXJXIXVXqXn.K.P.eXi.K.eXU.L.Z.V.&XHXPXUXUXUXUXUXUXUX",
"UXUXUXUXUXUXLXPXfXoXc.H.Y.E.E.eXaXrXK.S.NXJXPXPXPXIXKXFXDXAXZXnXnXZXAXDXFXJXKXLXKXIXIXVXqXS.U.A.eXE.E.T.H.c.XX6XLXLXUXUXUXUXUXUX",
"UXUXUXUXUXIXLXbX|.y.D.I.R.E.E.E.U.Y.iXVXPXPXPXPXPXLXHXFXDXSXnXvXlXbXZXDXHXJXLXPXPXPXKXJXFXiXY.U.E.E.R.T.L.C.y..X4XLXIXUXUXUXUXUX",
"UXUXUXUXUXJXHX Xa.z.J.I.@.L.R.Y.E.iXGXPXPXPXPXPXPXKXmX%X{.].[.&X6X6X&X6X3XlXKXPXPXPXPXPXDXKXBXtXL.T.T.-.G.G.z.f.[.bXKXUXUXUXUXUX",
"UXUXUXUXGXKX1X7.t.M.G.H.E.T.H.U.pXKXPXPXPXPXPXPXfX'.6XAXDXAXAXnXnXAXAXDXJXSXhXvXKXPXPXPXPXDXHXBXeXJ.I.E.H.G.z.t.6. XHXJXUXUXUXUX",
"UXUXUXUXDXnX'.8.x.z.D.G.G.G.G.iXKXPXPXPXPXPXmX`.jXPXIXKXFXFXAXCXZXAXDXHXJXKXPXPXbXnXLXPXPXPXDXFXNXL.F.G.G.D.z.j.} ).sXFXUXUXUXUX",
"UXUXUXDXSX%X*.0.j.k.Z.D.D.z.qXFXPXPXPXPXPX&X6XPXPXPXPXKXJXFXAXCXCXAXDXHXKXIXLXPXPXLXZXKXPXPXPXZXAXiXz.M.C.M.k.p.w.%.].AXDXUXUXUX",
"UXUXUXAXxX).[ w.;.b.;.l.l.j.zXLXPXPXPXLX'.vXPXPXPXPXPXLXHXDXAXCXnXAXDXHXKXPXPXLXKXPXPXSXJXPXLXLXkXAXB.f.k.i.u.g.9._ 2.2XSXUXUXUX",
"UXUXSXnX`.| [ q.h.;.g.g.+.wXHXJXKXKXLX'.nXPXPXPXPXPXPXLXJXSXAXnXnXCXSXKXLXPXPXPXPXKXKXPXHXHXKXKXJX8XzX@.f.m.k.p.q.[ | p nXSXUXUX",
"UXUXnXxXu T ' +.r.g.A.@.;.bXDXFXJXKX&XxXPXPXPXPXPXPXPXLXKXFXAXnXnXAXDXKXLXPXPXPXPXPXKXHXLXDXHXHXFXjXjXXX_ w.@.;.-.] Y t <XZXUXUX",
"UXUXmX*Xq Y ` i.;.) -./ 7XZXZXAXDXjX$XKXPXPXPXPXPXPXPXPXKXHXSXnXnXSXHXKXPXPXPXPXPXPXnX XKXHXZXDXAXCX-XfX^ @.a.o.;.[ T J Q.bXUXUX",
"UXZXcX,.F Y ) ' @.x.) #.gXbXbXnXAX!.SXHXKXPXPX&X4X4X3X3XbXHXSXZXZXDXKXLXPXPXPXPXPXmX{.KXHXDXZXbXCXnXsX3X7.R u.j.[ ) Q B e jXnXUX",
"UXbXgXw v T / U ! _ T 7.cXcXcXbX&X,XAXSXHXJXLX;XPXPXPXPXPXKXFXCXCXDXKXPXPXPXPXPXcX].HXFXDXZXCXbXbXcXcX#X>X/ ) / Q o.T n w =XmXUX",
"UXcX&Xw z Y +.h.;.) [ +XhXkXjXcXp vXbXAXAXDXHX=XPXPXPXPXPXKXFXvXkXnXLXPXPXPXPXhX$XFXFXAXZXbXcXcXjXhXkX#X,X#.T r.i.) I z 9 ^.vXUX",
"UXgX_.9 k I P T T I X.<XkXdXdX5X/.jXvXvXbXCXAX$XKXPXPXPXPX=X].,X4XfXhXmXLXPX4X6XFXDXZXbXvXcXhXhXkXdXfX3X`.3.V P T P I c 3 e jXUX",
"UXdXi 2 k P #.#./ V  .2XdX3X3XQ.<XdXjXjXjXcXbX[.AXHXPXPXFXAXKXAXAXKXPXPXAX1X6XSXZXbXcXcXhXgXdXsXdXsX3XdXQ.).I P +.#./ c 2 8 kXbX",
"bXdXw 2 j I #.#./ c  .5X5X<X5Xu 3XdXdXdXdXdXgX`.bXZXFXLXPXPXPXDXSXPXPXPXKXDXAXnXvXcXjXhXdXkX3X<X5X3X5X<XQ.{.V P I n c c : 7 5XvX",
"cXsX8 * j c c n c ; <.<X,X=X<Xy ,X3X<X<X3X3XsX^.gXjXbXZXKXPXPXDXSXPXPXHXnXvXxXfXdXsX3X3X<X<X].#X,X5X,X,XQ.`.c c I ~ U j & 8 =XcX",
"cX3X7 * j P ~ U V ; !.;X*X*X,Xy =X<X,X=X,X,X,XQ.2X2XdXdXcXAXPXLXKXLXFXcXgX5X2X<X;X<X,X,X,X,X].].=X<X*X=XQ.].: k ~ U ~ c $ 8 #XhX",
"jX<X6 * f V I P v $ ~.,X*X$X$Xi *X,X*X*X*X*X$Xi =X=X=X,X,X2XhXDXSXcX<X<X=X*X*X*X*X=X=X*X*X*XQ.`.*X;X*X*X`.Q.2 ; U +.P ; $ 8 ].hX",
"hX<X5 ; ; j : ; ; - ~.=X$X$X#Xi $X,X$X$X$X$X#Xu *X$X$X$X%X%X1XfXdX5X-X=X$X$X$X$X$X=X*X$X$X$XW.].#X6X$X$X^.`.1 f j j j j $ 7 {.gX",
"hX<X5 : ; / #.X.V + ).=X$X$X*Xi $X,X$X$X$X*X#XW.*X*X-X-X1X0XvX1X=XlXjX8X3X<X=X=X=X=X=X*X*X*XW.$X$X,X$X*X(.`.1 j +.#.+.j $ 6 ].gX",
"xX3X5 : j T +.+.k + ).,X#X$X=Xu $X6X*X*X*X*X*XW.=X,X2X4XfXxXvXOX{.kXvXjXkXsX4X3X2X2X6X6X=X=XW.$X*X<X*X*Xi ].% f z k j ; & 6 $XgX",
"xX3X8 2 ; j k k ; . 4.=X*X$X*Xp =X,X=X=X=X,X,XW.2X4XdXhXxXvX0XL a /.%X%X1XhXfXsXsXsX4X4X2X2XW.*X6X2X=X=Xu %X+ c X.o.P j : 4 ,XjX",
"xXsXw 9 ; V X.+.) + >.=X-X*X*XQ.-X,X2X,X6X<X2X!.sXdXhXxXvXjX6X'._.$X0XvXbXjXhXhXhXfXdXdX4X6X(.6XsX<X6X6Xy &X+ V o.) / f 3 4 sXlX",
"UXdXi 9 ; k n k c ; 0 =X<X-X=X].[.,XsX6X3X3XsX/.gXjXvXvXmXfX&X'._. X8XcXvXvXvXxXxXhXgXdXdX/.6X4XgX2X3X1Xu 2.$ b V P n j 3 8 kXUX",
"UXdX`.q ; c c c / c $ ;X1X-X,X<X^.<XsXsX4XsXgX1XxXvXbXbXxX1X&XOX[.OX&X8XvXvXbXvXxXjXjXgXgXi fXfXgXsXsX].'.H b o./ V V g q i hXUX",
"UXhX,Xy : k +.+.I n + .X<X1X<X<X].1XsXsXdXgXhXxXvXvXbXvX0X6X X'._.'.%X1XjXbXbXvXvXxXjXxX'.-XfXjXdXdXdXu 6Xd G R +.-.I z t #XlXUX",
"UXvXdXy | j v V B V j H -X3X3X3XsX].0XfXhXxXxXlXmXmXvXjX4X6X[.'.'.{.%X6X0XvXmXvXvXvXvXfXL jXhXjXfXfX3Xp 1.h Q P / T C U w sXcXUX",
"UXUXdX{.K ; n ) r.X.V - }.4X4X4XsX=X4XhXhXlXvXvXvXvXxXfX6X&X[.[.'.{.OX6X4XjXvXvXvXvXxXL gXjXvXhXjXkX!.%X< Y -.i.$./ V  .y vXUXUX",
"UXUXlX<Xi c V ) =.@.G h J 3XdXdXfXgX%XxXxXhXvXbXmXvXhX0X6X%X[.'.'.'.[.%X6X0XxXvXbXvX!.4XvXvXxXjXjX4Xp 2.l R Q _ ( / C L #XbXUXUX",
"UXUXcXkXQ.| c I G T Q T & .XdXkXgXhXjX6XvXvXhXvXmXlXfX1X&X X[.'.'.'.[.OX6X1XhXvXxXL 4XvXvXvXlXlXjXp ,Xm R %.g.+.! T ~ e kXbXUXUX",
"UXUXUXhX=X!.v I ^ q.q.! b S 0XfXhXjXjXhX4XmXmXhXfXjX8X6X&XOX{.'._.'.'. X&X6X4X&X,.jXvXmXnXlXxXlX X X5.b _ e.;.;.) T 1./.bXUXUXUX",
"UXUXUXvXhXQ.| C ^ ( ! ! E x 4.jXjXjXvXvXvXfXmXvXjX6X&X6X&X[.[.'._.'.'.[.&X'.L [.vXvXnXnXvXvXlX4X,.>Xx _ ' ] ] @.R X.y gXbXUXUXUX",
"UXUXUXUXcX;X<.T Q ( ( _ _ ( l 9XjXlXvXvXvXmXhXjXjX0X6X'._.(.L L L L r L r '.6X0XjXnXvXvXmXvXfXL MXN _ @.] ] [ ) R 1.`.nXUXUXUXUX",
"UXUXUXUXvXcX^.3.G ! ( ` ! ' ( N uXlXjXvXmXvXvXjX0X4X1X&XOX[.'./.(./.'.[.%X&X6XfXjXjXvXvXvX0XL jXD ( 8.` %.@.` ^ *.i cXnXUXUXUXUX",
"UXUXUXUXUXbXfX(.X.R _ @.j.] ] _ N uXlX8XbXmXlXkX8X4X6X6X&X{.'._.'.'.'.OX6X6X1X1X8XjXvXmX%X(.MXD ( 8.8.f.w.@.` ` ~.-XAXUXUXUXUXUX",
"UXUXUXUXUXmXbX=X).! ) ' @.8.9.8.' N 7XjX8XfXlXfX8X1X&X%X&X%X&XOXOXOX%XOXOXOX-X6X4XfXfX!.%X>XN ( 8.9.9.9.8.%._ )._.CXmXUXUXUXUXUX",
"UXUXUXUXUXUXbXbX].4._ ` ] 9.9.9.8.8.N &.8XfX6X1X1X6X-X%X X{.'.'._._.'.{.[.OX&X6X6XL !.6X5.N { 8.q.w.9.8.@.` 7.!.mXnXUXUXUXUXUXUX",
"UXUXUXUXUXUXUXnXvX_.7.^ ' 8.9.u.8.f.e.R N 5.6X6X[.{.&X&X[.].'.'.'.'.'.'.[.&X/.u a [.5.m G { q.a.8.` q.8.` 6.!.hXCXUXUXUXUXUXUXUX",
"UXUXUXUXUXUXUXUXCXvX_.7.[ 8.p.@.f.w.O.9._ x d J ).OX/.!.L L L L L L r r r r (./.H 1 d G ' 9.f.w.s.w.q.' 6./.0XAXUXUXUXUXUXUXUXUX",
"UXUXUXUXUXUXUXUXMXnXvX`.7.' @.k.e.O.l.) 8._ T & + 1 0 K ~._././.(././.~.K 0 > . + A _ ' %.8.w.w.q.w.8.6./.4XSXzXUXUXUXUXUXUXUXUX",
"UXUXUXUXUXUXUXUXUXUXAXvX'.oX@.@.9.j.%.f.` %.! { z s @ . . o X X X     o o . l b x G G W w.` 8.8.8.d.XX/.fXSXmXUXUXUXUXUXUXUXUXUX",
"UXUXUXUXUXUXUXUXUXUXUXAXnX[.|.u.@.q.w.8.] 8.@.! b l g s s d l d @ @ @ - s s x _ b ' ( G ^ k.8.8.s..X_.xXSXvXUXUXUXUXUXUXUXUXUXUX",
"UXUXUXUXUXUXUXUXUXUXUXUXAXSX:X{.v.q.d.` e._ { G ' w.z x v ! ^ Q s l # x l z R { b G 0.$.%.( _ 6.|. XCXAXUXUXUXUXUXUXUXUXUXUXUXUX",
"UXUXUXUXUXUXUXUXUXUXUXUXUXnXAXxX'.}.=.Q T ` R _ ' G z b G s Z T b N ! g ( b R R E G G b b o..X_.3XDXnXUXUXUXUXUXUXUXUXUXUXUXUXUX",
"UXUXUXUXUXUXUXUXUXUXUXUXUXUXmXAXCX1X/.).&.b x b / C ~ ' b G v ! G N { s _ g ) T b z g | 2./.&XvXAXmXUXUXUXUXUXUXUXUXUXUXUXUXUXUX",
"UXUXUXUXUXUXUXUXUXUXUXUXUXUXUXUXnXnXvX&X,.~. .D g s s g g Z A x s A x s [ # $ s A K ~.,.[.fXbXbXUXUXUXUXUXUXUXUXUXUXUXUXUXUXUXUX",
"UXUXUXUXUXUXUXUXUXUXUXUXUXUXUXUXUXUXvXvXhX6X/.a ,.K J S m d - - - - = m S H K L u !.OX0XjXlXUXUXUXUXUXUXUXUXUXUXUXUXUXUXUXUXUXUX",
"UXUXUXUXUXUXUXUXUXUXUXUXUXUXUXUXUXUXUXUXfXjXfX4X&X/.a e e e r r r r e e e r !.#X1XfXkXfXUXUXUXUXUXUXUXUXUXUXUXUXUXUXUXUXUXUXUXUX",
"UXUXUXUXUXUXUXUXUXUXUXUXUXUXUXUXUXUXUXUXUXUXUXfXfX0X4X1X&X%X[.[.'.[.OX&X6X4XsX4XfXUXUXUXUXUXUXUXUXUXUXUXUXUXUXUXUXUXUXUXUXUXUXUX",
"UXUXUXUXUXUXUXUXUXUXUXUXUXUXUXUXUXUXUXUXUXUXUXUXUXUXUX4X4X8X1X1X1X1X1X4X3XUXUXUXUXUXUXUXUXUXUXUXUXUXUXUXUXUXUXUXUXUXUXUXUXUXUXUX"
};
