/* XPM */
static char *_a9082388e174b1a9bf92a8416bbd254[] = {
/* columns rows colors chars-per-pixel */
"16 16 202 2 ",
"   c #7A6536",
".  c #6F6044",
"X  c #77684A",
"o  c #7F7351",
"O  c #916E1A",
"+  c #937721",
"@  c #947720",
"#  c #967A24",
"$  c #9F7C23",
"%  c #9B7A24",
"&  c #987C26",
"*  c #9A7E27",
"=  c #9E7D24",
"-  c #9A7928",
";  c #9C7F2E",
":  c #816B37",
">  c #927B36",
",  c #9B7F38",
"<  c #917D44",
"1  c #907D4B",
"2  c #8B7D53",
"3  c #887C54",
"4  c #9D8029",
"5  c #9E843B",
"6  c #A3852E",
"7  c #A3862F",
"8  c #AA8834",
"9  c #A78839",
"0  c #A4883F",
"q  c #B09036",
"w  c #958656",
"e  c #A68C42",
"r  c #A68D46",
"t  c #BA9940",
"y  c #A49157",
"u  c #AA9452",
"i  c #AC9155",
"p  c #A99059",
"a  c #AF965E",
"s  c #AE985B",
"d  c #B2995A",
"f  c #84806E",
"g  c #8B8271",
"h  c #8C8372",
"j  c #898472",
"k  c #898678",
"l  c #8E8B7B",
"z  c #A69B79",
"x  c #A59B7D",
"c  c #BAA063",
"v  c #BAA366",
"b  c #BCA465",
"n  c #C19F44",
"m  c #C29F45",
"M  c #C2A046",
"N  c #C4A34A",
"B  c #C0A34E",
"V  c #C3A44D",
"C  c #C8A54A",
"Z  c #C9A84F",
"A  c #CEAB50",
"S  c #CEAD53",
"D  c #D8B75E",
"F  c #D9B85E",
"G  c #CFB267",
"H  c #CDB168",
"J  c #DDBE65",
"K  c #D4BB79",
"L  c #D1BF7F",
"P  c #D7BF7C",
"I  c #DEC068",
"U  c #E0C56B",
"Y  c #E6CD74",
"T  c #EDD176",
"R  c #EED176",
"E  c #8E8E8D",
"W  c #919188",
"Q  c #97928A",
"!  c #97968E",
"~  c #9A968D",
"^  c #949690",
"/  c #959595",
"(  c #979797",
")  c #95999A",
"_  c #9B9B9A",
"`  c #9D9E98",
"'  c #989C9D",
"]  c #999D9E",
"[  c #9A9E9F",
"{  c gray61",
"}  c #B0A381",
"|  c #B7AB8B",
" . c #BFB38F",
".. c #A2A2A2",
"X. c #A7A7A1",
"o. c #A4A4A2",
"O. c #A4A4A3",
"+. c #A9A6A0",
"@. c #A3A8A9",
"#. c #A4A8A9",
"$. c #A5A9AA",
"%. c #A5AAAA",
"&. c #A7ABAC",
"*. c #AAAAAA",
"=. c #AAAFAF",
"-. c #ADADAC",
";. c #ACACAD",
":. c #B0AEA5",
">. c #BEB6A0",
",. c #ADB0B0",
"<. c #ACB0B1",
"1. c #AEB2B3",
"2. c #B0B2B2",
"3. c #B2B2B2",
"4. c #B2B3B2",
"5. c #B1B4B5",
"6. c #B1B4B6",
"7. c #B2B6B6",
"8. c #B3B6B7",
"9. c #B4B7B7",
"0. c #BEBAB2",
"q. c #B8B8B7",
"w. c #B5B9BA",
"e. c #B8BABB",
"r. c #BBBDBE",
"t. c #D0BE80",
"y. c #D6BE80",
"u. c #C3B899",
"i. c #C0B8A0",
"p. c #D7C180",
"a. c #D2C08E",
"s. c #D1C090",
"d. c #E2CC8B",
"f. c #E6CE88",
"g. c #E6D692",
"h. c #E5D595",
"j. c #D4C9A6",
"k. c #D4C8A8",
"l. c #C6C3B8",
"z. c #C7C4BA",
"x. c #C5C5BF",
"c. c #BFC0C0",
"v. c #BEC1C1",
"b. c #BDC1C2",
"n. c #C0C3C3",
"m. c #C2C4C4",
"M. c #C3C6C7",
"N. c gray77",
"B. c #C4C5C4",
"V. c #C5C7C5",
"C. c #CECBC2",
"Z. c #C9C8C4",
"A. c #C5C9C9",
"S. c #C6C9CA",
"D. c #C8C8C8",
"F. c #C8CACA",
"G. c #C8CACB",
"H. c #CCCCCA",
"J. c #CFCFCD",
"K. c #CDCECE",
"L. c #CECFCE",
"P. c #D8D4C5",
"I. c #D0D0CE",
"U. c #CED0D0",
"Y. c #CFD0D0",
"T. c #CFD0D1",
"R. c #D1D2D2",
"E. c #D0D2D3",
"W. c #D2D4D4",
"Q. c #D4D5D5",
"!. c #D7D9D9",
"~. c #E4E2DC",
"^. c #DFE0E0",
"/. c #E1E1E1",
"(. c #E4E4E2",
"). c #E3E4E4",
"_. c #E4E4E5",
"`. c gray90",
"'. c #E4E5E6",
"]. c #E5E6E6",
"[. c #E6E7E7",
"{. c #E8E7E2",
"}. c #E6E8E8",
"|. c #E7E8E8",
" X c #E9E9E8",
".X c #E9E9E9",
"XX c #EBEAE8",
"oX c #E8E9EA",
"OX c #ECECED",
"+X c #EFEEEC",
"@X c #EDEDEE",
"#X c #EDEEEE",
"$X c #F3F1E2",
"%X c #F2F0E4",
"&X c #F1F1F2",
"*X c #F4F4F3",
"=X c #F4F4F4",
"-X c #F6F6F6",
";X c #FBFBF8",
":X c #FBFBFB",
">X c #FEFEFE",
",X c None",
/* pixels */
",X,X,X,X,X}.z.i.>.z.}.,X,X,X,X,X",
",X,X,X+Xk.H A Z C A G k. X,X,X,X",
",X,X{.t.Y J p.t.s.p.J I L ~.,X,X",
",X Xy.T h.%X&XT.W.+X%Xh.T K ].,X",
",Xu.F f.;X/.}.]._.&X-X&Xd.D  .,X",
"S.r V P.Q.-XOX}.}.>X X+XC.V e b.",
"` 6 u n.m.W.;X^.].].!.E.b.y 7 ! ",
"l & w [ 1.$.S.}.}.M.w.$.=.3 * j ",
"k @ 3 ) @.] ,.w.1.6.,.] $.o # f ",
"^ @ < &.;.8.T.3.*.E.F.,.8.1 * W ",
"8.> 4 :.r.T.L...{ D.c.F.X.9 5 8.",
",Xx q i J.T.q./ E o.L.N.p t z ,X",
",XV.s M c 0.;._ ( X.+.a m d B.,X",
",X,XZ.v N 8 : X .   - M b B.,X,X",
",X,X,XI.| e = % O $ , } H.,X,X,X",
",X,X,X,X,X3.~ g g Q ;.,X,X,X,X,X"
};
