/* XPM */
static char *_dc15a46e57e4e649c53ef2f88582335[] = {
/* columns rows colors chars-per-pixel */
"32 32 233 2 ",
"   c #5E3F05",
".  c #5B3F0D",
"X  c #684702",
"o  c #674808",
"O  c #725004",
"+  c #71550C",
"@  c #7A5C0F",
"#  c #684D19",
"$  c #765A12",
"%  c #755A18",
"&  c #7E6219",
"*  c #5E5333",
"=  c #5E563D",
"-  c #61542E",
";  c #7A5F26",
":  c #625735",
">  c #715E3D",
",  c #5E5842",
"<  c #665E41",
"1  c #68614A",
"2  c #736244",
"3  c #6A6858",
"4  c #706450",
"5  c #7E6F53",
"6  c #786C58",
"7  c #7B705A",
"8  c #767262",
"9  c #7E7F7A",
"0  c #846614",
"q  c #876914",
"w  c #8B6C16",
"e  c #906D15",
"r  c #916E19",
"t  c #937016",
"y  c #93731C",
"u  c #9A791F",
"i  c #846721",
"p  c #896929",
"a  c #927520",
"s  c #997721",
"d  c #947820",
"f  c #9B7B24",
"g  c #91742E",
"h  c #987528",
"j  c #9A7E2B",
"k  c #8A7231",
"l  c #907236",
"z  c #957A35",
"x  c #9B7D34",
"c  c #A17D22",
"v  c #8B7D54",
"b  c #877C59",
"n  c #847E70",
"m  c #9E822C",
"M  c #A28026",
"N  c #A3832D",
"B  c #A9872E",
"V  c #A28632",
"C  c #A48935",
"Z  c #AC8B34",
"A  c #A8843B",
"S  c #A78E38",
"D  c #AD8D3A",
"F  c #B08E32",
"G  c #AC903A",
"H  c #B19137",
"J  c #B4943C",
"K  c #BA973D",
"L  c #BC9A3F",
"P  c #948355",
"I  c #93835C",
"U  c #98895F",
"Y  c #A78644",
"T  c #A78E4B",
"R  c #B08E4B",
"E  c #AF934C",
"W  c #B39644",
"Q  c #B69840",
"!  c #BC9B43",
"~  c #BC9D4B",
"^  c #AD8F57",
"/  c #AE9057",
"(  c #AD995F",
")  c #B89F5A",
"_  c #BFA24C",
"`  c #BFA65F",
"'  c #908560",
"]  c #968A66",
"[  c #9A8B62",
"{  c #90826A",
"}  c #978868",
"|  c #8B8A7F",
" . c #918672",
".. c #958874",
"X. c #98937F",
"o. c #A8986D",
"O. c #AE9E72",
"+. c #A49B7E",
"@. c #AD9F78",
"#. c #AEA076",
"$. c #B4A57D",
"%. c #C09E46",
"&. c #C09F48",
"*. c #C3A146",
"=. c #C5A44A",
"-. c #C9A64B",
";. c #C9A84E",
":. c #D3AE4E",
">. c #C2A752",
",. c #C5A851",
"<. c #CCAD54",
"1. c #C4A75B",
"2. c #C7A85A",
"3. c #CCAE58",
"4. c #CFB15B",
"5. c #D3B157",
"6. c #D5B55D",
"7. c #D9B658",
"8. c #D9B85E",
"9. c #CBAE62",
"0. c #C8AD68",
"q. c #D6B762",
"w. c #D3B964",
"e. c #DBBC63",
"r. c #DABD6A",
"t. c #CAB672",
"y. c #D3BE72",
"u. c #DFC166",
"i. c #DCC36C",
"p. c #DDC672",
"a. c #DFCB78",
"s. c #E5C267",
"d. c #E4C56B",
"f. c #E8C56B",
"g. c #E3C86E",
"h. c #ECC96D",
"j. c #E3CB74",
"k. c #EECC72",
"l. c #EED277",
"z. c #F0D377",
"x. c #F0D579",
"c. c #F2D87D",
"v. c #858583",
"b. c #8A8680",
"n. c #858987",
"m. c #8B8A86",
"M. c #8A8D8D",
"N. c #969383",
"B. c #92948E",
"V. c #8E9292",
"C. c #939494",
"Z. c #9B9B95",
"A. c #96999A",
"S. c #9B9C9B",
"D. c #A69D82",
"F. c #AF9E82",
"G. c #A29E8F",
"H. c #A19F90",
"J. c #A19F9D",
"K. c #A9A081",
"L. c #BDB086",
"P. c #BFB28C",
"I. c #A3A395",
"U. c #A2A09B",
"Y. c #A8A59C",
"T. c #9FA2A4",
"R. c #A3A4A4",
"E. c #A8A6A2",
"W. c #A8A8A6",
"Q. c #A2A7A8",
"!. c #A5A9AA",
"~. c #AAACAC",
"^. c #B0ADA5",
"/. c #B0AFA8",
"(. c #ADB1AE",
"). c #B1B1AD",
"_. c #BDB9AB",
"`. c #AAAEB0",
"'. c #ADB1B2",
"]. c #B2B4B4",
"[. c #BFBBB1",
"{. c #B5B9BA",
"}. c #BBBCBC",
"|. c #C7B581",
" X c #D2BE83",
".X c #C6B996",
"XX c #C1BFB6",
"oX c #D3C18A",
"OX c #EAD180",
"+X c #E9D887",
"@X c #E9D48A",
"#X c #E8D88F",
"$X c #F2DA80",
"%X c #D6CCAB",
"&X c #DED5A1",
"*X c #C5C2B7",
"=X c #C9C5BB",
"-X c #D7CFB1",
";X c #E1D9AE",
":X c #BCBFC0",
">X c #BEC1C2",
",X c #C2C4C4",
"<X c #C9C6C0",
"1X c #CDCCC4",
"2X c #C5C7C8",
"3X c #C6C9C9",
"4X c #CBCCCC",
"5X c #D0CEC7",
"6X c #D2D1CE",
"7X c #DBD7C9",
"8X c #DBDACF",
"9X c #CCCFD0",
"0X c #CED0D0",
"qX c #D3D4D5",
"wX c #D7D9D7",
"eX c #D7D8D8",
"rX c #DBDCDB",
"tX c #E6E3CD",
"yX c #EDECDC",
"uX c #DEDFE0",
"iX c #DEE0E1",
"pX c #E3E4E4",
"aX c #E9E9E3",
"sX c #EBECEC",
"dX c #F3F2E5",
"fX c #F1F1EC",
"gX c #EEEFF0",
"hX c #F3F3F4",
"jX c #F8F7F6",
"kX c #F9F9F7",
"lX c #F7F7F8",
"zX c #FCFCFC",
"xX c None",
/* pixels */
"xXxXxXxXxXxXxXxXxXxXxXxXlXgXhXsXsXgXhXhXxXxXxXxXxXxXxXxXxXxXxXxX",
"xXxXxXxXxXxXxXxXxXzXlXqX).D.[ P P [ D./.4XlXzXxXxXxXxXxXxXxXxXxX",
"xXxXxXxXxXxXxXxXkX1X$.1.-.-.-.=.-.*.=.:.2.$.<XfXxXxXxXxXxXxXxXxX",
"xXxXxXxXxXxXzXrXP.4.s.6.5.5.3.;.-.;.3.4.6.d.u.L.qXzXxXxXxXxXxXxX",
"xXxXxXxXxXzX<Xt.j.l.8.q.e.8.<.<.<.<.q.e.d.e.r.g.y.XXkXxXxXxXxXxX",
"xXxXxXxXzX*Xi.6.c.r.g.u. X%X7X6X6X7X-X Xr.d.j.u.w.i._.jXxXxXxXxX",
"xXxXxXzX=Xr.x.x.j.j.&XfXjXfXpXuXrXpXfXlXfX;Xa.g.c.z.e.XXkXxXxXxX",
"xXxXxXeX0.h.g.x.+XyXzXzXlXeX,X}.,X3XrXlXzXlXaX#Xx.f.f.9.4XxXxXxX",
"xXxXsX$.7.g.k.x.dXzXzXrX3XuXsXrXiXsXgXpXsXzXzXaX@Xk.s.6.O.pXxXxX",
"xXpX}.! 4.6.8.tXzXzX,XsXzXzXsXpXiXsXlXzXzXsXzXhX8Xq.8.3.! ).pXxX",
"xXrX' ! <.3.|.sXhX}.lXzXzXzXsXiXiXsXzXzXzXhXhXgXrX.X;.,.! v qXxX",
"xX'.z K _ J 5XuX2XrXzXsXrXrXsXpXpXhXzXzXhX>XgXiXrX}.W >.K x Q.xX",
"qXM.d W J ( 9X9X!.pXsX0XzXzXzXiXrXzXzXhX>XsXuXqX9X].#.H W f 9 qX",
"4X8 d G m K.>X(.'.0XqX}.hXzXrX3XqXpXpX:XpXwX9X>X>X{.X.m S d 1 9X",
"3X< y V y H.'.V.{.{.:X!.qXpXzXgXgXzXpXeX3X>X}.!.{.'.M.a m d : :X",
">X* y m 0 Z.Q.M.~.!.!.C.'.{.3XsXsX2X].~.`.!.!.V.~.Q.M.& C d - '.",
"}.* w j @ S.T.M.!.T.T.M.R.!.`.,X}.{.~.Q.Q.Q.T.M.!.Q.M.% x y - `.",
">X= w m + I.T.V.`.Q.!.C.].:X4X~.A.{.>X:X:X].'.V.`.!.m.$ j e * {.",
">X3 q N q N.~.S.Q.].].T.2X9X4XJ.S.3X0X0X3X,X`.~.:X].b.0 C y , 3X",
"3Xn.q V f v '.'.T.:X>X,XqXeX}.J.S.).0XeX0X4XJ.,X:XR.n B G r 9 4X",
"xXT.k m A i ).}.'.>X4XqXqX4X).S.C.W.2XqXqX{.{.4X,XA.l J Z x A.xX",
"xX,Xb f D h } ,X2X:X9X0XqX,XW.A.C.J.].6X,X].qX4X]. .N Q Z v ,XxX",
"xX4XS.m K K h XX4X4X4XqX,X).R.C.C.A.R.J.XXeXqX4XJ.x L ~ Z B.eXxX",
"xXxX3X] c H D Y 5X0XqX4X,XW.C.v.v.v.C.{.4XqX6XR.^ L L J [ ,XxXxX",
"xXxXxX].T J =.L R XX4X4XXX~.J.S.A.J.W.).,X}.J./ L -.%.E !.xXxXxX",
"xXxXxXeXY.W ! =.-.D F.).W.W.S.C.C.C.R.A.B...A =.! *.! Z.rXxXxXxX",
"xXxXxXxXeXY.~ -.-.&.Z p b n v.v.v.n 8 4 ; c ! -.-.~ H.eXxXxXxXxX",
"xXxXxXxXxXrX^.) &.-.Q K 0 O o # . . X s c B %.&.1.Y.rXxXxXxXxXxX",
"xXxXxXxXxXxXuX:X#.! J F K t c x 0 r s F c D D o.{.rXxXxXxXxXxXxX",
"xXxXxXxXxXxXxXxXqXE.v x y s y h y r s s g v J.1XxXxXxXxXxXxXxXxX",
"xXxXxXxXxXxXxXxXxX6X,XR.m.b 2 > > 2 6 b.S.}.1XxXxXxXxXxXxXxXxXxX",
"xXxXxXxXxXxXxXxXxXxXxXxX:X].).E.R.`.].XXxXxXxXxXxXxXxXxXxXxXxXxX"
};
